<?xml version="1.0" standalone="no"?>
<!DOCTYPE svg PUBLIC "-//W3C//DTD SVG 1.1//EN" "http://www.w3.org/Graphics/SVG/1.1/DTD/svg11.dtd">
<svg width="88mm" height="115mm" viewBox="1 -115 88 115" xmlns="http://www.w3.org/2000/svg" version="1.1">
<title>OpenSCAD Model</title>
<path d="
M 1.41421,-0 L 88.5858,-0 L 88.5858,-115 L 1.41421,-115 z
M 9,-10 L 9,-64 L 26.41,-64 L 26.41,-10 z
M 38.75,-8 L 38.75,-30 L 72.75,-30 L 72.75,-8 z
M 73.75,-66.5 L 73.7544,-66.6413 L 73.7677,-66.782 L 73.7899,-66.9216 L 73.8207,-67.0596 L 73.8601,-67.1953
 L 73.908,-67.3283 L 73.9641,-67.458 L 74.0283,-67.5839 L 74.1003,-67.7056 L 74.1797,-67.8225 L 74.2663,-67.9342
 L 74.3598,-68.0402 L 74.4598,-68.1402 L 74.5658,-68.2337 L 74.6775,-68.3203 L 74.7944,-68.3997 L 74.9161,-68.4717
 L 75.042,-68.5359 L 75.1717,-68.592 L 75.3047,-68.6399 L 75.4404,-68.6793 L 75.5784,-68.7101 L 75.718,-68.7323
 L 75.8587,-68.7456 L 76,-68.75 L 76.1413,-68.7456 L 76.282,-68.7323 L 76.4216,-68.7101 L 76.5596,-68.6793
 L 76.6953,-68.6399 L 76.8283,-68.592 L 76.958,-68.5359 L 77.0839,-68.4717 L 77.2056,-68.3997 L 77.3225,-68.3203
 L 77.4342,-68.2337 L 77.5402,-68.1402 L 77.6402,-68.0402 L 77.7337,-67.9342 L 77.8203,-67.8225 L 77.8997,-67.7056
 L 77.9717,-67.5839 L 78.0359,-67.458 L 78.092,-67.3283 L 78.1399,-67.1953 L 78.1793,-67.0596 L 78.2101,-66.9216
 L 78.2323,-66.782 L 78.2456,-66.6413 L 78.25,-66.5 L 78.2456,-66.3587 L 78.2323,-66.218 L 78.2101,-66.0784
 L 78.1793,-65.9404 L 78.1399,-65.8047 L 78.092,-65.6717 L 78.0359,-65.542 L 77.9717,-65.4161 L 77.8997,-65.2944
 L 77.8203,-65.1775 L 77.7337,-65.0658 L 77.6402,-64.9598 L 77.5402,-64.8598 L 77.4342,-64.7663 L 77.3225,-64.6797
 L 77.2056,-64.6003 L 77.0839,-64.5283 L 76.958,-64.4641 L 76.8283,-64.408 L 76.6953,-64.3601 L 76.5596,-64.3207
 L 76.4216,-64.2899 L 76.282,-64.2677 L 76.1413,-64.2544 L 76,-64.25 L 75.8587,-64.2544 L 75.718,-64.2677
 L 75.5784,-64.2899 L 75.4404,-64.3207 L 75.3047,-64.3601 L 75.1717,-64.408 L 75.042,-64.4641 L 74.9161,-64.5283
 L 74.7944,-64.6003 L 74.6775,-64.6797 L 74.5658,-64.7663 L 74.4598,-64.8598 L 74.3598,-64.9598 L 74.2663,-65.0658
 L 74.1797,-65.1775 L 74.1003,-65.2944 L 74.0283,-65.4161 L 73.9641,-65.542 L 73.908,-65.6717 L 73.8601,-65.8047
 L 73.8207,-65.9404 L 73.7899,-66.0784 L 73.7677,-66.218 L 73.7544,-66.3587 z
" stroke="black" fill="lightgray" stroke-width="0.5"/>
</svg>
